<svg width="18" height="12" viewBox="0 0 18 12" fill="none" xmlns="http://www.w3.org/2000/svg">
<path fill-rule="evenodd" clip-rule="evenodd" d="M0 5.97068C0 5.60429 0.297015 5.30728 0.663402 5.30728L16.5856 5.30728C16.952 5.30728 17.2491 5.60429 17.2491 5.97068C17.2491 6.33706 16.952 6.63408 16.5856 6.63408L0.663402 6.63408C0.297015 6.63408 0 6.33706 0 5.97068Z" fill="#E38064"/>
<path fill-rule="evenodd" clip-rule="evenodd" d="M12.6225 0.153934C12.904 -0.0806264 13.3223 -0.0426054 13.5568 0.238856L17.7437 5.26293C18.0854 5.67297 18.0854 6.26859 17.7437 6.67862L13.5568 11.7027C13.3223 11.9842 12.904 12.0222 12.6225 11.7876C12.341 11.5531 12.303 11.1347 12.5376 10.8533L16.6065 5.97078L12.5376 1.08827C12.303 0.806812 12.341 0.388494 12.6225 0.153934Z" fill="#E38064"/>
</svg>
